<svg fill="none" height="272" viewBox="0 0 580 272" width="580" xmlns="http://www.w3.org/2000/svg" xmlns:xlink="http://www.w3.org/1999/xlink"><mask id="a" fill="#000" height="271" maskUnits="userSpaceOnUse" width="581" x="0" y=".5"><path d="m0 .5h581v271h-581z" fill="#fff"/><path d="m33.7197 183.154-1.5936 3.718c-.748 1.746-1.2839 3.575-1.5961 5.448-.3517 2.11-.4165 4.259-.1925 6.386l.1358 1.291c.3492 3.316 1.1948 6.562 2.5085 9.627l.2922.682c1.476 3.444 3.4506 6.652 5.8606 9.521l.5265.627c4.1736 4.968 9.4007 8.946 15.3021 11.643l2.9745 1.36c3.6944 1.689 7.5809 2.921 11.5735 3.67l5.4214 1.017c3.0384.569 6.1231.856 9.2144.856h11.7918c3.3655 0 6.7222-.34 10.0202-1.014l10.59-2.166c4.282-.876 8.431-2.31 12.341-4.265l3.321-1.66c4.496-2.249 8.601-5.207 12.157-8.763l2.532-2.532c1.393-1.393 2.585-2.974 3.542-4.696 3.739-6.73 10.833-10.904 18.532-10.904h16.984c8.887 0 16.679 5.934 19.042 14.5l4.933 14.419c1.014 2.964 3.012 5.493 5.661 7.167l.172.108c3.318 2.096 7.393 2.619 11.133 1.429 3.273-1.041 6.016-3.309 7.655-6.328l6.946-12.795 6.157-12.171c6.313-12.48 24.171-12.379 30.343.171l5.982 13.56c1.01 2.289 2.226 4.481 3.632 6.549l4.563 6.71c1.193 1.755 2.838 3.155 4.761 4.052 2.914 1.36 6.257 1.47 9.254.304l.229-.089c2.639-1.026 4.846-2.928 6.251-5.386l.857-1.502c.645-1.128 1.161-2.326 1.536-3.571l1.315-4.353c3.634-12.038 14.723-20.274 27.298-20.274h7.229c11.009 0 20.118 8.567 20.79 19.556l.115 1.866c.123 2.024.72 3.99 1.742 5.741l.06.104c1.231 2.11 3.049 3.815 5.233 4.907l.684.342c1.295.647 2.723.984 4.17.984 3.012 0 5.838-1.454 7.588-3.905l.37-.518c1.201-1.681 1.883-3.677 1.96-5.741l.316-8.361c.322-8.531 6.995-15.462 15.508-16.107 9.744-.738 18.057 6.969 18.057 16.74v4.525c0 1.892.384 3.763 1.129 5.502l.301.703c1.884 4.395 6.074 7.362 10.845 7.68l.669.045c4.065.271 7.971-1.621 10.278-4.977 1.164-1.693 1.855-3.667 2.002-5.716l.115-1.616c.654-9.158 8.275-16.254 17.456-16.254h39.733c8.545 0 15.472 7.043 15.472 15.589 0 1.259.164 2.527.489 3.744l.508 1.907c.643 2.412 2.2 4.478 4.34 5.762 1.097.659 2.316 1.091 3.583 1.272l2.403.344c1.743.249 3.521-.04 5.096-.827 1.675-.838 3.034-2.197 3.872-3.872l.806-1.614c.924-1.847 1.43-3.875 1.481-5.94l1.922-76.865-1-84-1.64-14.7568c-.233-2.0994-1.174-4.0569-2.667-5.5506-1.424-1.4232-3.27-2.3465-5.263-2.6311l-1.193-.1705c-1.787-.2552-3.609.0113-5.247.7675-2.528 1.1666-4.405 3.3977-5.122 6.0875l-.868 3.254-1.104 5.5199c-.596 2.9805-.919 6.0092-.965 9.0484l-.784 51.7477c-.08 5.258-4.562 9.369-9.808 8.994l-4.121-.294c-3.71-.265-6.226-3.89-5.176-7.458.3-1.019.315-2.101.045-3.128l-.447-1.698c-1.025-3.897-3.919-7.03-7.723-8.361l-1.101-.386c-1.858-.65-3.829-.91-5.791-.765l-3.107.231c-4.868.36-9.569 1.932-13.675 4.571l-7.743 4.978-1.137.94c-4.539 3.749-11.431 1.082-12.264-4.746-.372-2.604-2.075-4.826-4.493-5.863l-1.233-.528c-1.236-.53-2.566-.803-3.91-.803h-3.428c-1.653 0-3.269.489-4.644 1.406-1.55 1.033-2.711 2.553-3.3 4.32l-2.355 7.065c-.819 2.457-1.236 5.029-1.236 7.618v7.751c0 9.024-7.316 16.34-16.34 16.34-8.55 0-15.654-6.592-16.294-15.118l-.366-4.882v-7.351c0-4.044-.942-8.032-2.75-11.649l-.772-1.545c-1.301-2.601-1.978-5.469-1.978-8.377v-4.4953c0-4.3407 2.452-8.3089 6.335-10.2502 1.748-.8738 3.243-2.1799 4.343-3.7943l1.834-2.6886c2.598-3.8111 3.988-8.3168 3.988-12.9295 0-2.9199-.557-5.813-1.642-8.524l-2.739-6.8483c-.406-1.0155-1.062-1.9123-1.906-2.6075l-3.383-2.7865c-1.858-1.5295-1.623-4.4413.455-5.6535 1.062-.6194 1.715-1.7562 1.715-2.9855v-.8319c0-1.0907-.364-2.1503-1.033-3.0113l-.284-.365c-1.354-1.7402-3.524-2.639-5.711-2.3656l-1.541.1926c-1.904.238-3.682 1.0794-5.073 2.401l-5.755 5.4673c-1.383 1.3136-3.055 2.2837-4.882 2.8317-1.467.4403-2.839 1.154-4.041 2.1034l-2.991 2.361c-3.088 2.438-5.601 5.5265-7.361 9.0457l-.117.2346c-1.783 3.5655-2.711 7.497-2.711 11.4833v1.9803c0 4.195 1.342 8.28 3.831 11.6572l1.191 1.6162c1.295 1.7579 3.036 3.1382 5.043 3.9984 4.511 1.933 7.435 6.368 7.435 11.2751v8.7612c0 2.421-.344 4.83-1.022 7.154l-1.831 6.276c-.429 1.473-.647 2.999-.647 4.532v2.483c0 7.569-6.136 13.705-13.705 13.705-8.509 0-14.961-7.671-13.503-16.054l.828-4.76c.249-1.432.111-2.903-.399-4.263-.473-1.262-1.252-2.388-2.267-3.275l-.721-.631c-1.142-1-2.485-1.743-3.939-2.179-1.829-.548-3.772-.594-5.624-.131l-1.524.381c-1.09.273-2.132.716-3.085 1.311-1.675 1.047-3.028 2.536-3.912 4.302l-.121.243c-.351.702-.631 1.438-.834 2.196l-21.106 78.534c-.056.207-.198.381-.39.477-.381.191-.845.027-1.021-.361l-22.177-48.79-4.577-7.628c-.934-1.557-2.238-2.861-3.795-3.795-1.72-1.032-3.687-1.577-5.693-1.577h-.671c-1.814 0-3.598.455-5.191 1.324-1.998 1.089-3.602 2.781-4.585 4.833l-1.527 3.188c-8.74 18.246-35.464 15.763-40.692-3.781l-5.372-20.08c-.264-.987-.614-1.95-1.047-2.876l-.9-1.929c-1.255-2.69-3.465-4.817-6.2-5.969l-.645-.271c-2.913-1.227-6.225-1.075-9.014.412-2.006 1.07-3.611 2.763-4.573 4.824l-.303.651c-1.116 2.389-1.456 5.068-.975 7.66l.417 2.241c2.556 13.767-9.618 25.753-23.343 22.983l-25.814-5.21-18.5-6.5-18.378-4.977c-3.7354-1.012-7.3407-2.454-10.7434-4.297l-3.5774-1.938c-2.1893-1.186-4.1954-2.682-5.9559-4.443l-.9151-.915c-2.5755-2.575-4.4343-5.778-5.3926-9.292l-.0474-.174c-.9748-3.574-.9521-7.347.0658-10.9099.947-3.3147 2.7232-6.3333 5.1608-8.7709l.2341-.2341c2.6534-2.6534 5.9533-4.5684 9.5736-5.5558l2.5447-.694c1.9494-.5316 3.9453-.8744 5.9603-1.0237l5.6344-.4174c3.2161-.2382 6.4481-.1647 9.6511.2196l3.865.4638c2.543.3052 5.059.8052 7.525 1.4957l6.331 1.7728c1.638.4586 3.223 1.0894 4.728 1.8817l3.916 2.0609c2.153 1.1332 3.873 2.9445 4.892 5.1536l.047.1013c.9 1.9497 1.192 4.1251.839 6.2434-.3 1.803-1.057 3.498-2.199 4.925l-.889 1.111c-.909 1.137-1.661 2.391-2.234 3.729l-.547 1.276c-1.036 2.417-1.33 5.088-.846 7.673l.135.716c.405 2.162 1.454 4.151 3.009 5.706 1.695 1.695 3.9 2.785 6.275 3.101l.511.068c2.179.291 4.396-.001 6.426-.847l.364-.152c1.675-.698 3.197-1.717 4.481-3.001l1.618-1.618c2.595-2.595 4.598-5.72 5.872-9.161l.814-2.197c1.49-4.021 2.252-8.275 2.252-12.564v-2.4295c0-3.3665-.572-6.7084-1.693-9.883-.868-2.4583-2.055-4.7916-3.532-6.9399l-.469-.6823c-1.862-2.7081-4.086-5.1481-6.611-7.252l-1.291-1.0761c-2.596-2.1628-5.411-4.0465-8.401-5.62l-.877-.4615c-2.745-1.4447-5.618-2.6308-8.583-3.543l-8.543-2.6287-11.433-2.1436c-3.038-.5697-6.123-.8564-9.214-.8564h-4.098c-2.8317 0-5.6579.2405-8.4485.7189l-7.936 1.3604c-3.5698.612-7.0625 1.61-10.4166 2.9765l-2.2525.9177c-4.1137 1.676-7.9708 3.9234-11.4573 6.6759-2.8202 2.2265-5.3774 4.7672-7.6221 7.573l-1.0242 1.2803c-2.3871 2.9839-4.3499 6.2836-5.8327 9.8053-1.1732 2.7863-2.0379 5.6926-2.5788 8.6671l-.3886 2.1376c-.5307 2.9193-.7977 5.8793-.7977 8.8463v.849c0 3.778.4976 7.54 1.4798 11.189l.286 1.062c1.1469 4.259 3.0474 8.279 5.6115 11.869 2.3982 3.358 5.3419 6.29 8.7088 8.675l1.5433 1.093c3.5638 2.524 7.4545 4.552 11.565 6.028l13.3056 4.776 23.19 6.797c3.851 1.129 7.509 2.835 10.848 5.061l3.323 2.216c3.371 2.248 6.122 5.309 7.996 8.902 2.055 3.939 2.981 8.37 2.676 12.802l-.078 1.123c-.298 4.322-1.739 8.487-4.175 12.069-3.096 4.553-7.638 7.928-12.89 9.579l-4.458 1.401c-3.273 1.029-6.67 1.608-10.099 1.722l-3.6954.123c-4.0764.136-8.1541-.227-12.1422-1.082l-11.9098-2.552c-2.0464-.438-4.0187-1.17-5.8559-2.172l-3.7668-2.055c-2.8485-1.553-4.9309-4.212-5.7567-7.35-.774-2.942-.3815-6.068 1.0956-8.727l.29-.522c1.5531-2.796 4.063-4.937 7.0685-6.03l1.0324-.375c3.3769-1.228 6.0702-3.837 7.4047-7.173.5962-1.491.9026-3.082.9026-4.687v-1.945c0-2.641-1.0491-5.174-2.9166-7.042-1.0426-1.042-2.3037-1.84-3.6922-2.336l-.6854-.245c-2.7279-.974-5.7005-1.024-8.4593-.141l-4.2476 1.359c-2.6492.848-5.1477 2.11-7.4027 3.738l-1.0671.771c-3 2.167-5.6334 4.8-7.8001 7.8l-.5828.807c-1.7588 2.435-3.2433 5.057-4.4265 7.818z" fill="#000"/></mask><mask id="b" height="199" maskUnits="userSpaceOnUse" width="520" x="30" y="43"><path d="m100.824 57.2641c4.779 0 10.24.4267 16.384 1.28 6.315.6827 12.203 2.048 17.664 4.096 5.461 1.8773 10.069 4.4373 13.824 7.68 3.755 3.072 5.632 6.912 5.632 11.52 0 2.7307-.768 5.0347-2.304 6.912s-4.011 2.816-7.424 2.816c-2.56 0-5.205-.512-7.936-1.536-2.56-1.024-5.547-2.048-8.96-3.072-3.243-1.1947-7.083-2.304-11.52-3.328-4.267-1.024-9.301-1.536-15.104-1.536-11.264 0-19.6266 2.048-25.0879 6.144-5.2907 3.9253-7.936 9.3867-7.936 16.3839 0 4.779 1.1946 8.789 3.584 12.032 2.3893 3.243 5.5466 6.059 9.472 8.448 4.096 2.219 8.6186 4.096 13.5679 5.632 5.12 1.536 10.325 2.987 15.616 4.352 5.973 1.536 11.861 3.413 17.664 5.632 5.973 2.219 11.264 5.12 15.872 8.704s8.277 8.107 11.008 13.568c2.901 5.461 4.352 12.373 4.352 20.736 0 8.704-1.621 16.555-4.864 23.552-3.243 6.827-7.68 12.715-13.312 17.664-5.632 4.779-12.373 8.533-20.224 11.264-7.851 2.56-16.384 3.84-25.5999 3.84-5.12 0-11.0934-.512-17.92-1.536-6.8267-.853-13.312-2.389-19.456-4.608-6.144-2.389-11.3494-5.461-15.6161-9.216-4.2666-3.925-6.4-8.704-6.4-14.336 0-3.413.8534-6.144 2.56-8.192 1.8774-2.048 4.6081-3.072 8.1921-3.072 2.9013 0 5.2906.597 7.168 1.792 1.8773 1.024 3.4986 2.219 4.864 3.584 5.12 4.437 10.9226 7.424 17.408 8.96 6.4853 1.536 13.1413 2.304 19.968 2.304 3.9253 0 8.0209-.256 12.2879-.768 4.437-.683 8.448-1.963 12.032-3.84s6.571-4.523 8.96-7.936c2.389-3.584 3.584-8.363 3.584-14.336 0-5.461-1.109-9.899-3.328-13.312-2.048-3.584-4.864-6.571-8.448-8.96s-7.851-4.352-12.8-5.888c-4.779-1.536-9.9839-3.072-15.6159-4.608-6.3147-1.707-12.544-3.584-18.688-5.632s-11.6054-4.779-16.384-8.192c-4.7787-3.584-8.704-8.021-11.7761-13.312-2.9013-5.461-4.352-12.373-4.352-20.736 0-8.3626 1.5361-15.7013 4.608-22.0159 3.072-6.3147 7.2534-11.6054 12.5441-15.872 5.2906-4.2667 11.5199-7.5093 18.688-9.728 7.3386-2.2187 15.1893-3.328 23.5519-3.328z" fill="#e0c3ff"/><path d="m251.824 141.232c1.024-2.219 2.475-3.84 4.352-4.864 2.048-1.195 4.267-1.792 6.656-1.792 2.048 0 4.011.512 5.888 1.536 2.048 1.024 3.669 2.645 4.864 4.864 4.949 9.216 9.387 18.603 13.312 28.16 4.096 9.387 8.448 18.944 13.056 28.672 4.267-13.824 8.021-27.136 11.264-39.936 3.243-12.971 6.571-25.685 9.984-38.144 1.195-4.437 2.816-7.339 4.864-8.704 2.048-1.536 4.693-2.304 7.936-2.304 2.901 0 5.291.853 7.168 2.56 1.877 1.536 2.816 3.669 2.816 6.4 0 2.219-.597 6.144-1.792 11.776-1.024 5.461-2.475 11.861-4.352 19.2-1.707 7.168-3.669 14.848-5.888 23.04-2.048 8.192-4.181 16.043-6.4 23.552-2.048 7.509-4.011 14.336-5.888 20.48s-3.328 10.752-4.352 13.824c-1.365 3.925-2.987 6.827-4.864 8.704-1.877 2.048-4.779 3.072-8.704 3.072-3.584 0-6.571-1.365-8.96-4.096-2.389-2.901-4.608-6.315-6.656-10.24-.683-1.365-1.792-3.669-3.328-6.912s-3.413-7.083-5.632-11.52c-2.048-4.437-4.352-9.301-6.912-14.592-2.389-5.291-4.864-10.667-7.424-16.128-2.56 5.461-5.205 10.837-7.936 16.128-2.56 5.291-4.949 10.24-7.168 14.848-2.219 4.437-4.181 8.277-5.888 11.52-1.536 3.243-2.645 5.547-3.328 6.912-2.048 3.925-4.267 7.339-6.656 10.24-2.219 2.731-5.205 4.096-8.96 4.096-5.973 0-10.496-3.925-13.568-11.776-1.195-3.072-2.731-7.595-4.608-13.568-1.877-6.144-3.84-12.971-5.888-20.48s-4.096-15.275-6.144-23.296c-2.048-8.192-3.925-15.872-5.632-23.04-1.536-7.168-2.816-13.483-3.84-18.944s-1.536-9.387-1.536-11.776c0-2.901.768-5.291 2.304-7.168 1.707-1.877 4.096-2.816 7.168-2.816 3.413 0 6.144.768 8.192 2.304 2.219 1.365 3.925 4.267 5.12 8.704 3.413 12.459 6.741 25.173 9.984 38.144 3.243 12.8 6.997 26.112 11.264 39.936 3.755-8.192 7.509-16.725 11.264-25.6s8.704-19.2 14.848-30.976z" fill="#e0c3ff"/><path d="m371.408 222.128c-.341-6.315-.683-13.483-1.024-21.504-.171-8.192-.256-17.152-.256-26.88 0-12.117.085-22.443.256-30.976.171-8.704.597-15.787 1.28-21.248.853-5.632 2.133-9.728 3.84-12.288 1.707-2.731 4.096-4.096 7.168-4.096 2.901 0 5.461 1.024 7.68 3.072s3.499 6.485 3.84 13.312c1.024 17.92 1.536 35.243 1.536 51.968 0 8.533-.171 16.555-.512 24.064-.341 7.339-.683 15.445-1.024 24.32-.171 4.096-.597 7.253-1.28 9.472-.512 2.219-1.28 3.925-2.304 5.12s-2.219 1.877-3.584 2.048c-1.195.341-2.645.512-4.352.512-3.072 0-5.632-1.024-7.68-3.072-2.048-2.219-3.243-6.827-3.584-13.824zm11.52-163.3279c3.925 0 7.509 1.536 10.752 4.608 3.413 3.072 5.12 6.7413 5.12 11.008 0 4.096-1.707 7.68-5.12 10.752-3.413 2.9013-7.253 4.352-11.52 4.352-3.584 0-6.997-1.4507-10.24-4.352-3.072-3.072-4.608-6.8267-4.608-11.264 0-4.096 1.536-7.5947 4.608-10.496 3.243-3.072 6.912-4.608 11.008-4.608z" fill="#e0c3ff"/><path d="m428.646 222.384c-.683-5.973-1.109-13.227-1.28-21.76s-.256-18.859-.256-30.976c0-11.947 0-21.589 0-28.928.171-7.339.683-13.824 1.536-19.456.853-6.997 2.133-11.52 3.84-13.568 1.877-2.048 4.267-3.072 7.168-3.072 2.048 0 3.84.171 5.376.512 1.707.341 3.157 1.109 4.352 2.304 1.365 1.024 2.389 2.56 3.072 4.608s1.024 4.864 1.024 8.448c0 .683.085 1.365.256 2.048v2.304c.171.683.256 1.536.256 2.56 4.608-5.803 9.813-10.752 15.616-14.848 5.973-4.096 12.715-6.144 20.224-6.144 10.069 0 15.104 4.181 15.104 12.544 0 3.072-.683 5.632-2.048 7.68-1.195 2.048-2.987 3.755-5.376 5.12-2.219 1.195-4.864 2.133-7.936 2.816-2.901.683-6.144 1.365-9.728 2.048-5.461 1.024-10.581 2.987-15.36 5.888-4.779 2.731-8.021 6.229-9.728 10.496v7.168c.171 1.536.256 2.816.256 3.84.171 1.024.256 2.133.256 3.328v5.632c0 8.704-.171 16.896-.512 24.576-.341 7.509-.683 15.701-1.024 24.576-.171 4.096-.683 7.253-1.536 9.472-.683 2.219-1.621 3.925-2.816 5.12-1.024 1.195-2.219 1.877-3.584 2.048-1.365.341-2.731.512-4.096.512-4.779 0-8.021-1.024-9.728-3.072-1.536-2.219-2.645-6.827-3.328-13.824z" fill="#e0c3ff"/><path d="m525.402 223.152c-.171-6.144-.341-13.312-.512-21.504s-.341-17.067-.512-26.624c0-9.557-.085-19.627-.256-30.208 0-10.581 0-21.419 0-32.512 0-12.117.085-22.5279.256-31.2319s.597-15.872 1.28-21.504c.853-5.632 2.133-9.728 3.84-12.288 1.707-2.7307 4.096-4.096 7.168-4.096 2.901 0 5.461.9386 7.68 2.816 2.219 1.8773 3.499 6.2293 3.84 13.056.683 12.288 1.109 25.088 1.28 38.4.171 13.1409.256 26.1119.256 38.9119v22.272c0 6.997-.085 13.995-.256 20.992-.171 6.827-.341 13.824-.512 20.992s-.427 14.592-.768 22.272c-.171 4.096-.597 7.253-1.28 9.472-.512 2.219-1.28 3.925-2.304 5.12s-2.219 1.877-3.584 2.048c-1.195.341-2.645.512-4.352.512-3.072 0-5.632-1.024-7.68-3.072-2.048-2.219-3.243-6.827-3.584-13.824z" fill="#e0c3ff"/><path clip-rule="evenodd" d="m75.592 169.333c1.749 6.678-2.2469 13.51-8.9252 15.259l-2.3259.609c-8.2364 2.158-12.3544 13.279-6.334 19.299 4.8815 4.882 6.2133 11.957 1.3317 16.839-4.8815 4.882-13.457 6.543-18.3386 1.661-19.6731-19.673-9.9073-54.934 17.0069-61.983l2.3259-.609c6.6783-1.749 13.5101 2.247 15.2592 8.925z" fill="#e0c3ff" fill-rule="evenodd"/><path d="m145.07 118c11.877-10.894 9.797-30.1784-4.131-38.2884l-2.939-1.7116" fill="none" stroke="#e0c3ff" stroke-linecap="round" stroke-width="25"/></mask><path d="m33.7197 183.154-1.5936 3.718c-.748 1.746-1.2839 3.575-1.5961 5.448-.3517 2.11-.4165 4.259-.1925 6.386l.1358 1.291c.3492 3.316 1.1948 6.562 2.5085 9.627l.2922.682c1.476 3.444 3.4506 6.652 5.8606 9.521l.5265.627c4.1736 4.968 9.4007 8.946 15.3021 11.643l2.9745 1.36c3.6944 1.689 7.5809 2.921 11.5735 3.67l5.4214 1.017c3.0384.569 6.1231.856 9.2144.856h11.7918c3.3655 0 6.7222-.34 10.0202-1.014l10.59-2.166c4.282-.876 8.431-2.31 12.341-4.265l3.321-1.66c4.496-2.249 8.601-5.207 12.157-8.763l2.532-2.532c1.393-1.393 2.585-2.974 3.542-4.696 3.739-6.73 10.833-10.904 18.532-10.904h16.984c8.887 0 16.679 5.934 19.042 14.5l4.933 14.419c1.014 2.964 3.012 5.493 5.661 7.167l.172.108c3.318 2.096 7.393 2.619 11.133 1.429 3.273-1.041 6.016-3.309 7.655-6.328l6.946-12.795 6.157-12.171c6.313-12.48 24.171-12.379 30.343.171l5.982 13.56c1.01 2.289 2.226 4.481 3.632 6.549l4.563 6.71c1.193 1.755 2.838 3.155 4.761 4.052 2.914 1.36 6.257 1.47 9.254.304l.229-.089c2.639-1.026 4.846-2.928 6.251-5.386l.857-1.502c.645-1.128 1.161-2.326 1.536-3.571l1.315-4.353c3.634-12.038 14.723-20.274 27.298-20.274h7.229c11.009 0 20.118 8.567 20.79 19.556l.115 1.866c.123 2.024.72 3.99 1.742 5.741l.06.104c1.231 2.11 3.049 3.815 5.233 4.907l.684.342c1.295.647 2.723.984 4.17.984 3.012 0 5.838-1.454 7.588-3.905l.37-.518c1.201-1.681 1.883-3.677 1.96-5.741l.316-8.361c.322-8.531 6.995-15.462 15.508-16.107 9.744-.738 18.057 6.969 18.057 16.74v4.525c0 1.892.384 3.763 1.129 5.502l.301.703c1.884 4.395 6.074 7.362 10.845 7.68l.669.045c4.065.271 7.971-1.621 10.278-4.977 1.164-1.693 1.855-3.667 2.002-5.716l.115-1.616c.654-9.158 8.275-16.254 17.456-16.254h39.733c8.545 0 15.472 7.043 15.472 15.589 0 1.259.164 2.527.489 3.744l.508 1.907c.643 2.412 2.2 4.478 4.34 5.762 1.097.659 2.316 1.091 3.583 1.272l2.403.344c1.743.249 3.521-.04 5.096-.827 1.675-.838 3.034-2.197 3.872-3.872l.806-1.614c.924-1.847 1.43-3.875 1.481-5.94l1.922-76.865-1-84-1.64-14.7568c-.233-2.0994-1.174-4.0569-2.667-5.5506-1.424-1.4232-3.27-2.3465-5.263-2.6311l-1.193-.1705c-1.787-.2552-3.609.0113-5.247.7675-2.528 1.1666-4.405 3.3977-5.122 6.0875l-.868 3.254-1.104 5.5199c-.596 2.9805-.919 6.0092-.965 9.0484l-.784 51.7477c-.08 5.258-4.562 9.369-9.808 8.994l-4.121-.294c-3.71-.265-6.226-3.89-5.176-7.458.3-1.019.315-2.101.045-3.128l-.447-1.698c-1.025-3.897-3.919-7.03-7.723-8.361l-1.101-.386c-1.858-.65-3.829-.91-5.791-.765l-3.107.231c-4.868.36-9.569 1.932-13.675 4.571l-7.743 4.978-1.137.94c-4.539 3.749-11.431 1.082-12.264-4.746-.372-2.604-2.075-4.826-4.493-5.863l-1.233-.528c-1.236-.53-2.566-.803-3.91-.803h-3.428c-1.653 0-3.269.489-4.644 1.406-1.55 1.033-2.711 2.553-3.3 4.32l-2.355 7.065c-.819 2.457-1.236 5.029-1.236 7.618v7.751c0 9.024-7.316 16.34-16.34 16.34-8.55 0-15.654-6.592-16.294-15.118l-.366-4.882v-7.351c0-4.044-.942-8.032-2.75-11.649l-.772-1.545c-1.301-2.601-1.978-5.469-1.978-8.377v-4.4953c0-4.3407 2.452-8.3089 6.335-10.2502 1.748-.8738 3.243-2.1799 4.343-3.7943l1.834-2.6886c2.598-3.8111 3.988-8.3168 3.988-12.9295 0-2.9199-.557-5.813-1.642-8.524l-2.739-6.8483c-.406-1.0155-1.062-1.9123-1.906-2.6075l-3.383-2.7865c-1.858-1.5295-1.623-4.4413.455-5.6535 1.062-.6194 1.715-1.7562 1.715-2.9855v-.8319c0-1.0907-.364-2.1503-1.033-3.0113l-.284-.365c-1.354-1.7402-3.524-2.639-5.711-2.3656l-1.541.1926c-1.904.238-3.682 1.0794-5.073 2.401l-5.755 5.4673c-1.383 1.3136-3.055 2.2837-4.882 2.8317-1.467.4403-2.839 1.154-4.041 2.1034l-2.991 2.361c-3.088 2.438-5.601 5.5265-7.361 9.0457l-.117.2346c-1.783 3.5655-2.711 7.497-2.711 11.4833v1.9803c0 4.195 1.342 8.28 3.831 11.6572l1.191 1.6162c1.295 1.7579 3.036 3.1382 5.043 3.9984 4.511 1.933 7.435 6.368 7.435 11.2751v8.7612c0 2.421-.344 4.83-1.022 7.154l-1.831 6.276c-.429 1.473-.647 2.999-.647 4.532v2.483c0 7.569-6.136 13.705-13.705 13.705-8.509 0-14.961-7.671-13.503-16.054l.828-4.76c.249-1.432.111-2.903-.399-4.263-.473-1.262-1.252-2.388-2.267-3.275l-.721-.631c-1.142-1-2.485-1.743-3.939-2.179-1.829-.548-3.772-.594-5.624-.131l-1.524.381c-1.09.273-2.132.716-3.085 1.311-1.675 1.047-3.028 2.536-3.912 4.302l-.121.243c-.351.702-.631 1.438-.834 2.196l-21.106 78.534c-.056.207-.198.381-.39.477-.381.191-.845.027-1.021-.361l-22.177-48.79-4.577-7.628c-.934-1.557-2.238-2.861-3.795-3.795-1.72-1.032-3.687-1.577-5.693-1.577h-.671c-1.814 0-3.598.455-5.191 1.324-1.998 1.089-3.602 2.781-4.585 4.833l-1.527 3.188c-8.74 18.246-35.464 15.763-40.692-3.781l-5.372-20.08c-.264-.987-.614-1.95-1.047-2.876l-.9-1.929c-1.255-2.69-3.465-4.817-6.2-5.969l-.645-.271c-2.913-1.227-6.225-1.075-9.014.412-2.006 1.07-3.611 2.763-4.573 4.824l-.303.651c-1.116 2.389-1.456 5.068-.975 7.66l.417 2.241c2.556 13.767-9.618 25.753-23.343 22.983l-25.814-5.21-18.5-6.5-18.378-4.977c-3.7354-1.012-7.3407-2.454-10.7434-4.297l-3.5774-1.938c-2.1893-1.186-4.1954-2.682-5.9559-4.443l-.9151-.915c-2.5755-2.575-4.4343-5.778-5.3926-9.292l-.0474-.174c-.9748-3.574-.9521-7.347.0658-10.9099.947-3.3147 2.7232-6.3333 5.1608-8.7709l.2341-.2341c2.6534-2.6534 5.9533-4.5684 9.5736-5.5558l2.5447-.694c1.9494-.5316 3.9453-.8744 5.9603-1.0237l5.6344-.4174c3.2161-.2382 6.4481-.1647 9.6511.2196l3.865.4638c2.543.3052 5.059.8052 7.525 1.4957l6.331 1.7728c1.638.4586 3.223 1.0894 4.728 1.8817l3.916 2.0609c2.153 1.1332 3.873 2.9445 4.892 5.1536l.047.1013c.9 1.9497 1.192 4.1251.839 6.2434-.3 1.803-1.057 3.498-2.199 4.925l-.889 1.111c-.909 1.137-1.661 2.391-2.234 3.729l-.547 1.276c-1.036 2.417-1.33 5.088-.846 7.673l.135.716c.405 2.162 1.454 4.151 3.009 5.706 1.695 1.695 3.9 2.785 6.275 3.101l.511.068c2.179.291 4.396-.001 6.426-.847l.364-.152c1.675-.698 3.197-1.717 4.481-3.001l1.618-1.618c2.595-2.595 4.598-5.72 5.872-9.161l.814-2.197c1.49-4.021 2.252-8.275 2.252-12.564v-2.4295c0-3.3665-.572-6.7084-1.693-9.883-.868-2.4583-2.055-4.7916-3.532-6.9399l-.469-.6823c-1.862-2.7081-4.086-5.1481-6.611-7.252l-1.291-1.0761c-2.596-2.1628-5.411-4.0465-8.401-5.62l-.877-.4615c-2.745-1.4447-5.618-2.6308-8.583-3.543l-8.543-2.6287-11.433-2.1436c-3.038-.5697-6.123-.8564-9.214-.8564h-4.098c-2.8317 0-5.6579.2405-8.4485.7189l-7.936 1.3604c-3.5698.612-7.0625 1.61-10.4166 2.9765l-2.2525.9177c-4.1137 1.676-7.9708 3.9234-11.4573 6.6759-2.8202 2.2265-5.3774 4.7672-7.6221 7.573l-1.0242 1.2803c-2.3871 2.9839-4.3499 6.2836-5.8327 9.8053-1.1732 2.7863-2.0379 5.6926-2.5788 8.6671l-.3886 2.1376c-.5307 2.9193-.7977 5.8793-.7977 8.8463v.849c0 3.778.4976 7.54 1.4798 11.189l.286 1.062c1.1469 4.259 3.0474 8.279 5.6115 11.869 2.3982 3.358 5.3419 6.29 8.7088 8.675l1.5433 1.093c3.5638 2.524 7.4545 4.552 11.565 6.028l13.3056 4.776 23.19 6.797c3.851 1.129 7.509 2.835 10.848 5.061l3.323 2.216c3.371 2.248 6.122 5.309 7.996 8.902 2.055 3.939 2.981 8.37 2.676 12.802l-.078 1.123c-.298 4.322-1.739 8.487-4.175 12.069-3.096 4.553-7.638 7.928-12.89 9.579l-4.458 1.401c-3.273 1.029-6.67 1.608-10.099 1.722l-3.6954.123c-4.0764.136-8.1541-.227-12.1422-1.082l-11.9098-2.552c-2.0464-.438-4.0187-1.17-5.8559-2.172l-3.7668-2.055c-2.8485-1.553-4.9309-4.212-5.7567-7.35-.774-2.942-.3815-6.068 1.0956-8.727l.29-.522c1.5531-2.796 4.063-4.937 7.0685-6.03l1.0324-.375c3.3769-1.228 6.0702-3.837 7.4047-7.173.5962-1.491.9026-3.082.9026-4.687v-1.945c0-2.641-1.0491-5.174-2.9166-7.042-1.0426-1.042-2.3037-1.84-3.6922-2.336l-.6854-.245c-2.7279-.974-5.7005-1.024-8.4593-.141l-4.2476 1.359c-2.6492.848-5.1477 2.11-7.4027 3.738l-1.0671.771c-3 2.167-5.6334 4.8-7.8001 7.8l-.5828.807c-1.7588 2.435-3.2433 5.057-4.4265 7.818z" fill="#eaca79"/><path d="m33.7197 183.154-1.5936 3.718c-.748 1.746-1.2839 3.575-1.5961 5.448-.3517 2.11-.4165 4.259-.1925 6.386l.1358 1.291c.3492 3.316 1.1948 6.562 2.5085 9.627l.2922.682c1.476 3.444 3.4506 6.652 5.8606 9.521l.5265.627c4.1736 4.968 9.4007 8.946 15.3021 11.643l2.9745 1.36c3.6944 1.689 7.5809 2.921 11.5735 3.67l5.4214 1.017c3.0384.569 6.1231.856 9.2144.856h11.7918c3.3655 0 6.7222-.34 10.0202-1.014l10.59-2.166c4.282-.876 8.431-2.31 12.341-4.265l3.321-1.66c4.496-2.249 8.601-5.207 12.157-8.763l2.532-2.532c1.393-1.393 2.585-2.974 3.542-4.696 3.739-6.73 10.833-10.904 18.532-10.904h16.984c8.887 0 16.679 5.934 19.042 14.5l4.933 14.419c1.014 2.964 3.012 5.493 5.661 7.167l.172.108c3.318 2.096 7.393 2.619 11.133 1.429 3.273-1.041 6.016-3.309 7.655-6.328l6.946-12.795 6.157-12.171c6.313-12.48 24.171-12.379 30.343.171l5.982 13.56c1.01 2.289 2.226 4.481 3.632 6.549l4.563 6.71c1.193 1.755 2.838 3.155 4.761 4.052 2.914 1.36 6.257 1.47 9.254.304l.229-.089c2.639-1.026 4.846-2.928 6.251-5.386l.857-1.502c.645-1.128 1.161-2.326 1.536-3.571l1.315-4.353c3.634-12.038 14.723-20.274 27.298-20.274h7.229c11.009 0 20.118 8.567 20.79 19.556l.115 1.866c.123 2.024.72 3.99 1.742 5.741l.06.104c1.231 2.11 3.049 3.815 5.233 4.907l.684.342c1.295.647 2.723.984 4.17.984 3.012 0 5.838-1.454 7.588-3.905l.37-.518c1.201-1.681 1.883-3.677 1.96-5.741l.316-8.361c.322-8.531 6.995-15.462 15.508-16.107 9.744-.738 18.057 6.969 18.057 16.74v4.525c0 1.892.384 3.763 1.129 5.502l.301.703c1.884 4.395 6.074 7.362 10.845 7.68l.669.045c4.065.271 7.971-1.621 10.278-4.977 1.164-1.693 1.855-3.667 2.002-5.716l.115-1.616c.654-9.158 8.275-16.254 17.456-16.254h39.733c8.545 0 15.472 7.043 15.472 15.589 0 1.259.164 2.527.489 3.744l.508 1.907c.643 2.412 2.2 4.478 4.34 5.762 1.097.659 2.316 1.091 3.583 1.272l2.403.344c1.743.249 3.521-.04 5.096-.827 1.675-.838 3.034-2.197 3.872-3.872l.806-1.614c.924-1.847 1.43-3.875 1.481-5.94l1.922-76.865-1-84-1.64-14.7568c-.233-2.0994-1.174-4.0569-2.667-5.5506-1.424-1.4232-3.27-2.3465-5.263-2.6311l-1.193-.1705c-1.787-.2552-3.609.0113-5.247.7675-2.528 1.1666-4.405 3.3977-5.122 6.0875l-.868 3.254-1.104 5.5199c-.596 2.9805-.919 6.0092-.965 9.0484l-.784 51.7477c-.08 5.258-4.562 9.369-9.808 8.994l-4.121-.294c-3.71-.265-6.226-3.89-5.176-7.458.3-1.019.315-2.101.045-3.128l-.447-1.698c-1.025-3.897-3.919-7.03-7.723-8.361l-1.101-.386c-1.858-.65-3.829-.91-5.791-.765l-3.107.231c-4.868.36-9.569 1.932-13.675 4.571l-7.743 4.978-1.137.94c-4.539 3.749-11.431 1.082-12.264-4.746-.372-2.604-2.075-4.826-4.493-5.863l-1.233-.528c-1.236-.53-2.566-.803-3.91-.803h-3.428c-1.653 0-3.269.489-4.644 1.406-1.55 1.033-2.711 2.553-3.3 4.32l-2.355 7.065c-.819 2.457-1.236 5.029-1.236 7.618v7.751c0 9.024-7.316 16.34-16.34 16.34-8.55 0-15.654-6.592-16.294-15.118l-.366-4.882v-7.351c0-4.044-.942-8.032-2.75-11.649l-.772-1.545c-1.301-2.601-1.978-5.469-1.978-8.377v-4.4953c0-4.3407 2.452-8.3089 6.335-10.2502 1.748-.8738 3.243-2.1799 4.343-3.7943l1.834-2.6886c2.598-3.8111 3.988-8.3168 3.988-12.9295 0-2.9199-.557-5.813-1.642-8.524l-2.739-6.8483c-.406-1.0155-1.062-1.9123-1.906-2.6075l-3.383-2.7865c-1.858-1.5295-1.623-4.4413.455-5.6535 1.062-.6194 1.715-1.7562 1.715-2.9855v-.8319c0-1.0907-.364-2.1503-1.033-3.0113l-.284-.365c-1.354-1.7402-3.524-2.639-5.711-2.3656l-1.541.1926c-1.904.238-3.682 1.0794-5.073 2.401l-5.755 5.4673c-1.383 1.3136-3.055 2.2837-4.882 2.8317-1.467.4403-2.839 1.154-4.041 2.1034l-2.991 2.361c-3.088 2.438-5.601 5.5265-7.361 9.0457l-.117.2346c-1.783 3.5655-2.711 7.497-2.711 11.4833v1.9803c0 4.195 1.342 8.28 3.831 11.6572l1.191 1.6162c1.295 1.7579 3.036 3.1382 5.043 3.9984 4.511 1.933 7.435 6.368 7.435 11.2751v8.7612c0 2.421-.344 4.83-1.022 7.154l-1.831 6.276c-.429 1.473-.647 2.999-.647 4.532v2.483c0 7.569-6.136 13.705-13.705 13.705-8.509 0-14.961-7.671-13.503-16.054l.828-4.76c.249-1.432.111-2.903-.399-4.263-.473-1.262-1.252-2.388-2.267-3.275l-.721-.631c-1.142-1-2.485-1.743-3.939-2.179-1.829-.548-3.772-.594-5.624-.131l-1.524.381c-1.09.273-2.132.716-3.085 1.311-1.675 1.047-3.028 2.536-3.912 4.302l-.121.243c-.351.702-.631 1.438-.834 2.196l-21.106 78.534c-.056.207-.198.381-.39.477-.381.191-.845.027-1.021-.361l-22.177-48.79-4.577-7.628c-.934-1.557-2.238-2.861-3.795-3.795-1.72-1.032-3.687-1.577-5.693-1.577h-.671c-1.814 0-3.598.455-5.191 1.324-1.998 1.089-3.602 2.781-4.585 4.833l-1.527 3.188c-8.74 18.246-35.464 15.763-40.692-3.781l-5.372-20.08c-.264-.987-.614-1.95-1.047-2.876l-.9-1.929c-1.255-2.69-3.465-4.817-6.2-5.969l-.645-.271c-2.913-1.227-6.225-1.075-9.014.412-2.006 1.07-3.611 2.763-4.573 4.824l-.303.651c-1.116 2.389-1.456 5.068-.975 7.66l.417 2.241c2.556 13.767-9.618 25.753-23.343 22.983l-25.814-5.21-18.5-6.5-18.378-4.977c-3.7354-1.012-7.3407-2.454-10.7434-4.297l-3.5774-1.938c-2.1893-1.186-4.1954-2.682-5.9559-4.443l-.9151-.915c-2.5755-2.575-4.4343-5.778-5.3926-9.292l-.0474-.174c-.9748-3.574-.9521-7.347.0658-10.9099.947-3.3147 2.7232-6.3333 5.1608-8.7709l.2341-.2341c2.6534-2.6534 5.9533-4.5684 9.5736-5.5558l2.5447-.694c1.9494-.5316 3.9453-.8744 5.9603-1.0237l5.6344-.4174c3.2161-.2382 6.4481-.1647 9.6511.2196l3.865.4638c2.543.3052 5.059.8052 7.525 1.4957l6.331 1.7728c1.638.4586 3.223 1.0894 4.728 1.8817l3.916 2.0609c2.153 1.1332 3.873 2.9445 4.892 5.1536l.047.1013c.9 1.9497 1.192 4.1251.839 6.2434-.3 1.803-1.057 3.498-2.199 4.925l-.889 1.111c-.909 1.137-1.661 2.391-2.234 3.729l-.547 1.276c-1.036 2.417-1.33 5.088-.846 7.673l.135.716c.405 2.162 1.454 4.151 3.009 5.706 1.695 1.695 3.9 2.785 6.275 3.101l.511.068c2.179.291 4.396-.001 6.426-.847l.364-.152c1.675-.698 3.197-1.717 4.481-3.001l1.618-1.618c2.595-2.595 4.598-5.72 5.872-9.161l.814-2.197c1.49-4.021 2.252-8.275 2.252-12.564v-2.4295c0-3.3665-.572-6.7084-1.693-9.883-.868-2.4583-2.055-4.7916-3.532-6.9399l-.469-.6823c-1.862-2.7081-4.086-5.1481-6.611-7.252l-1.291-1.0761c-2.596-2.1628-5.411-4.0465-8.401-5.62l-.877-.4615c-2.745-1.4447-5.618-2.6308-8.583-3.543l-8.543-2.6287-11.433-2.1436c-3.038-.5697-6.123-.8564-9.214-.8564h-4.098c-2.8317 0-5.6579.2405-8.4485.7189l-7.936 1.3604c-3.5698.612-7.0625 1.61-10.4166 2.9765l-2.2525.9177c-4.1137 1.676-7.9708 3.9234-11.4573 6.6759-2.8202 2.2265-5.3774 4.7672-7.6221 7.573l-1.0242 1.2803c-2.3871 2.9839-4.3499 6.2836-5.8327 9.8053-1.1732 2.7863-2.0379 5.6926-2.5788 8.6671l-.3886 2.1376c-.5307 2.9193-.7977 5.8793-.7977 8.8463v.849c0 3.778.4976 7.54 1.4798 11.189l.286 1.062c1.1469 4.259 3.0474 8.279 5.6115 11.869 2.3982 3.358 5.3419 6.29 8.7088 8.675l1.5433 1.093c3.5638 2.524 7.4545 4.552 11.565 6.028l13.3056 4.776 23.19 6.797c3.851 1.129 7.509 2.835 10.848 5.061l3.323 2.216c3.371 2.248 6.122 5.309 7.996 8.902 2.055 3.939 2.981 8.37 2.676 12.802l-.078 1.123c-.298 4.322-1.739 8.487-4.175 12.069-3.096 4.553-7.638 7.928-12.89 9.579l-4.458 1.401c-3.273 1.029-6.67 1.608-10.099 1.722l-3.6954.123c-4.0764.136-8.1541-.227-12.1422-1.082l-11.9098-2.552c-2.0464-.438-4.0187-1.17-5.8559-2.172l-3.7668-2.055c-2.8485-1.553-4.9309-4.212-5.7567-7.35-.774-2.942-.3815-6.068 1.0956-8.727l.29-.522c1.5531-2.796 4.063-4.937 7.0685-6.03l1.0324-.375c3.3769-1.228 6.0702-3.837 7.4047-7.173.5962-1.491.9026-3.082.9026-4.687v-1.945c0-2.641-1.0491-5.174-2.9166-7.042-1.0426-1.042-2.3037-1.84-3.6922-2.336l-.6854-.245c-2.7279-.974-5.7005-1.024-8.4593-.141l-4.2476 1.359c-2.6492.848-5.1477 2.11-7.4027 3.738l-1.0671.771c-3 2.167-5.6334 4.8-7.8001 7.8l-.5828.807c-1.7588 2.435-3.2433 5.057-4.4265 7.818z" mask="url(#a)" stroke="#eaca79" stroke-width="60"/><path d="m33.7197 183.154-1.5936 3.718c-.748 1.746-1.2839 3.575-1.5961 5.448-.3517 2.11-.4165 4.259-.1925 6.386l.1358 1.291c.3492 3.316 1.1948 6.562 2.5085 9.627l.2922.682c1.476 3.444 3.4506 6.652 5.8606 9.521l.5265.627c4.1736 4.968 9.4007 8.946 15.3021 11.643l2.9745 1.36c3.6944 1.689 7.5809 2.921 11.5735 3.67l5.4214 1.017c3.0384.569 6.1231.856 9.2144.856h11.7918c3.3655 0 6.7222-.34 10.0202-1.014l10.59-2.166c4.282-.876 8.431-2.31 12.341-4.265l3.321-1.66c4.496-2.249 8.601-5.207 12.157-8.763l2.532-2.532c1.393-1.393 2.585-2.974 3.542-4.696 3.739-6.73 10.833-10.904 18.532-10.904h16.984c8.887 0 16.679 5.934 19.042 14.5l4.933 14.419c1.014 2.964 3.012 5.493 5.661 7.167l.172.108c3.318 2.096 7.393 2.619 11.133 1.429 3.273-1.041 6.016-3.309 7.655-6.328l6.946-12.795 6.157-12.171c6.313-12.48 24.171-12.379 30.343.171l5.982 13.56c1.01 2.289 2.226 4.481 3.632 6.549l4.563 6.71c1.193 1.755 2.838 3.155 4.761 4.052 2.914 1.36 6.257 1.47 9.254.304l.229-.089c2.639-1.026 4.846-2.928 6.251-5.386l.857-1.502c.645-1.128 1.161-2.326 1.536-3.571l1.315-4.353c3.634-12.038 14.723-20.274 27.298-20.274h7.229c11.009 0 20.118 8.567 20.79 19.556l.115 1.866c.123 2.024.72 3.99 1.742 5.741l.06.104c1.231 2.11 3.049 3.815 5.233 4.907l.684.342c1.295.647 2.723.984 4.17.984 3.012 0 5.838-1.454 7.588-3.905l.37-.518c1.201-1.681 1.883-3.677 1.96-5.741l.316-8.361c.322-8.531 6.995-15.462 15.508-16.107 9.744-.738 18.057 6.969 18.057 16.74v4.525c0 1.892.384 3.763 1.129 5.502l.301.703c1.884 4.395 6.074 7.362 10.845 7.68l.669.045c4.065.271 7.971-1.621 10.278-4.977 1.164-1.693 1.855-3.667 2.002-5.716l.115-1.616c.654-9.158 8.275-16.254 17.456-16.254h39.733c8.545 0 15.472 7.043 15.472 15.589 0 1.259.164 2.527.489 3.744l.508 1.907c.643 2.412 2.2 4.478 4.34 5.762 1.097.659 2.316 1.091 3.583 1.272l2.403.344c1.743.249 3.521-.04 5.096-.827 1.675-.838 3.034-2.197 3.872-3.872l.806-1.614c.924-1.847 1.43-3.875 1.481-5.94l1.922-76.865-1-84-1.64-14.7568c-.233-2.0994-1.174-4.0569-2.667-5.5506-1.424-1.4232-3.27-2.3465-5.263-2.6311l-1.193-.1705c-1.787-.2552-3.609.0113-5.247.7675-2.528 1.1666-4.405 3.3977-5.122 6.0875l-.868 3.254-1.104 5.5199c-.596 2.9805-.919 6.0092-.965 9.0484l-.784 51.7477c-.08 5.258-4.562 9.369-9.808 8.994l-4.121-.294c-3.71-.265-6.226-3.89-5.176-7.458.3-1.019.315-2.101.045-3.128l-.447-1.698c-1.025-3.897-3.919-7.03-7.723-8.361l-1.101-.386c-1.858-.65-3.829-.91-5.791-.765l-3.107.231c-4.868.36-9.569 1.932-13.675 4.571l-7.743 4.978-1.137.94c-4.539 3.749-11.431 1.082-12.264-4.746-.372-2.604-2.075-4.826-4.493-5.863l-1.233-.528c-1.236-.53-2.566-.803-3.91-.803h-3.428c-1.653 0-3.269.489-4.644 1.406-1.55 1.033-2.711 2.553-3.3 4.32l-2.355 7.065c-.819 2.457-1.236 5.029-1.236 7.618v7.751c0 9.024-7.316 16.34-16.34 16.34-8.55 0-15.654-6.592-16.294-15.118l-.366-4.882v-7.351c0-4.044-.942-8.032-2.75-11.649l-.772-1.545c-1.301-2.601-1.978-5.469-1.978-8.377v-4.4953c0-4.3407 2.452-8.3089 6.335-10.2502 1.748-.8738 3.243-2.1799 4.343-3.7943l1.834-2.6886c2.598-3.8111 3.988-8.3168 3.988-12.9295 0-2.9199-.557-5.813-1.642-8.524l-2.739-6.8483c-.406-1.0155-1.062-1.9123-1.906-2.6075l-3.383-2.7865c-1.858-1.5295-1.623-4.4413.455-5.6535 1.062-.6194 1.715-1.7562 1.715-2.9855v-.8319c0-1.0907-.364-2.1503-1.033-3.0113l-.284-.365c-1.354-1.7402-3.524-2.639-5.711-2.3656l-1.541.1926c-1.904.238-3.682 1.0794-5.073 2.401l-5.755 5.4673c-1.383 1.3136-3.055 2.2837-4.882 2.8317-1.467.4403-2.839 1.154-4.041 2.1034l-2.991 2.361c-3.088 2.438-5.601 5.5265-7.361 9.0457l-.117.2346c-1.783 3.5655-2.711 7.497-2.711 11.4833v1.9803c0 4.195 1.342 8.28 3.831 11.6572l1.191 1.6162c1.295 1.7579 3.036 3.1382 5.043 3.9984 4.511 1.933 7.435 6.368 7.435 11.2751v8.7612c0 2.421-.344 4.83-1.022 7.154l-1.831 6.276c-.429 1.473-.647 2.999-.647 4.532v2.483c0 7.569-6.136 13.705-13.705 13.705-8.509 0-14.961-7.671-13.503-16.054l.828-4.76c.249-1.432.111-2.903-.399-4.263-.473-1.262-1.252-2.388-2.267-3.275l-.721-.631c-1.142-1-2.485-1.743-3.939-2.179-1.829-.548-3.772-.594-5.624-.131l-1.524.381c-1.09.273-2.132.716-3.085 1.311-1.675 1.047-3.028 2.536-3.912 4.302l-.121.243c-.351.702-.631 1.438-.834 2.196l-21.106 78.534c-.056.207-.198.381-.39.477-.381.191-.845.027-1.021-.361l-22.177-48.79-4.577-7.628c-.934-1.557-2.238-2.861-3.795-3.795-1.72-1.032-3.687-1.577-5.693-1.577h-.671c-1.814 0-3.598.455-5.191 1.324-1.998 1.089-3.602 2.781-4.585 4.833l-1.527 3.188c-8.74 18.246-35.464 15.763-40.692-3.781l-5.372-20.08c-.264-.987-.614-1.95-1.047-2.876l-.9-1.929c-1.255-2.69-3.465-4.817-6.2-5.969l-.645-.271c-2.913-1.227-6.225-1.075-9.014.412-2.006 1.07-3.611 2.763-4.573 4.824l-.303.651c-1.116 2.389-1.456 5.068-.975 7.66l.417 2.241c2.556 13.767-9.618 25.753-23.343 22.983l-25.814-5.21-18.5-6.5-18.378-4.977c-3.7354-1.012-7.3407-2.454-10.7434-4.297l-3.5774-1.938c-2.1893-1.186-4.1954-2.682-5.9559-4.443l-.9151-.915c-2.5755-2.575-4.4343-5.778-5.3926-9.292l-.0474-.174c-.9748-3.574-.9521-7.347.0658-10.9099.947-3.3147 2.7232-6.3333 5.1608-8.7709l.2341-.2341c2.6534-2.6534 5.9533-4.5684 9.5736-5.5558l2.5447-.694c1.9494-.5316 3.9453-.8744 5.9603-1.0237l5.6344-.4174c3.2161-.2382 6.4481-.1647 9.6511.2196l3.865.4638c2.543.3052 5.059.8052 7.525 1.4957l6.331 1.7728c1.638.4586 3.223 1.0894 4.728 1.8817l3.916 2.0609c2.153 1.1332 3.873 2.9445 4.892 5.1536l.047.1013c.9 1.9497 1.192 4.1251.839 6.2434-.3 1.803-1.057 3.498-2.199 4.925l-.889 1.111c-.909 1.137-1.661 2.391-2.234 3.729l-.547 1.276c-1.036 2.417-1.33 5.088-.846 7.673l.135.716c.405 2.162 1.454 4.151 3.009 5.706 1.695 1.695 3.9 2.785 6.275 3.101l.511.068c2.179.291 4.396-.001 6.426-.847l.364-.152c1.675-.698 3.197-1.717 4.481-3.001l1.618-1.618c2.595-2.595 4.598-5.72 5.872-9.161l.814-2.197c1.49-4.021 2.252-8.275 2.252-12.564v-2.4295c0-3.3665-.572-6.7084-1.693-9.883-.868-2.4583-2.055-4.7916-3.532-6.9399l-.469-.6823c-1.862-2.7081-4.086-5.1481-6.611-7.252l-1.291-1.0761c-2.596-2.1628-5.411-4.0465-8.401-5.62l-.877-.4615c-2.745-1.4447-5.618-2.6308-8.583-3.543l-8.543-2.6287-11.433-2.1436c-3.038-.5697-6.123-.8564-9.214-.8564h-4.098c-2.8317 0-5.6579.2405-8.4485.7189l-7.936 1.3604c-3.5698.612-7.0625 1.61-10.4166 2.9765l-2.2525.9177c-4.1137 1.676-7.9708 3.9234-11.4573 6.6759-2.8202 2.2265-5.3774 4.7672-7.6221 7.573l-1.0242 1.2803c-2.3871 2.9839-4.3499 6.2836-5.8327 9.8053-1.1732 2.7863-2.0379 5.6926-2.5788 8.6671l-.3886 2.1376c-.5307 2.9193-.7977 5.8793-.7977 8.8463v.849c0 3.778.4976 7.54 1.4798 11.189l.286 1.062c1.1469 4.259 3.0474 8.279 5.6115 11.869 2.3982 3.358 5.3419 6.29 8.7088 8.675l1.5433 1.093c3.5638 2.524 7.4545 4.552 11.565 6.028l13.3056 4.776 23.19 6.797c3.851 1.129 7.509 2.835 10.848 5.061l3.323 2.216c3.371 2.248 6.122 5.309 7.996 8.902 2.055 3.939 2.981 8.37 2.676 12.802l-.078 1.123c-.298 4.322-1.739 8.487-4.175 12.069-3.096 4.553-7.638 7.928-12.89 9.579l-4.458 1.401c-3.273 1.029-6.67 1.608-10.099 1.722l-3.6954.123c-4.0764.136-8.1541-.227-12.1422-1.082l-11.9098-2.552c-2.0464-.438-4.0187-1.17-5.8559-2.172l-3.7668-2.055c-2.8485-1.553-4.9309-4.212-5.7567-7.35-.774-2.942-.3815-6.068 1.0956-8.727l.29-.522c1.5531-2.796 4.063-4.937 7.0685-6.03l1.0324-.375c3.3769-1.228 6.0702-3.837 7.4047-7.173.5962-1.491.9026-3.082.9026-4.687v-1.945c0-2.641-1.0491-5.174-2.9166-7.042-1.0426-1.042-2.3037-1.84-3.6922-2.336l-.6854-.245c-2.7279-.974-5.7005-1.024-8.4593-.141l-4.2476 1.359c-2.6492.848-5.1477 2.11-7.4027 3.738l-1.0671.771c-3 2.167-5.6334 4.8-7.8001 7.8l-.5828.807c-1.7588 2.435-3.2433 5.057-4.4265 7.818z" fill="#eaca79" stroke="#eaca79" stroke-width="30"/><g fill="#e0c3ff"><path d="m100.824 57.2641c4.779 0 10.24.4267 16.384 1.28 6.315.6827 12.203 2.048 17.664 4.096 5.461 1.8773 10.069 4.4373 13.824 7.68 3.755 3.072 5.632 6.912 5.632 11.52 0 2.7307-.768 5.0347-2.304 6.912s-4.011 2.816-7.424 2.816c-2.56 0-5.205-.512-7.936-1.536-2.56-1.024-5.547-2.048-8.96-3.072-3.243-1.1947-7.083-2.304-11.52-3.328-4.267-1.024-9.301-1.536-15.104-1.536-11.264 0-19.6266 2.048-25.0879 6.144-5.2907 3.9253-7.936 9.3867-7.936 16.3839 0 4.779 1.1946 8.789 3.584 12.032 2.3893 3.243 5.5466 6.059 9.472 8.448 4.096 2.219 8.6186 4.096 13.5679 5.632 5.12 1.536 10.325 2.987 15.616 4.352 5.973 1.536 11.861 3.413 17.664 5.632 5.973 2.219 11.264 5.12 15.872 8.704s8.277 8.107 11.008 13.568c2.901 5.461 4.352 12.373 4.352 20.736 0 8.704-1.621 16.555-4.864 23.552-3.243 6.827-7.68 12.715-13.312 17.664-5.632 4.779-12.373 8.533-20.224 11.264-7.851 2.56-16.384 3.84-25.5999 3.84-5.12 0-11.0934-.512-17.92-1.536-6.8267-.853-13.312-2.389-19.456-4.608-6.144-2.389-11.3494-5.461-15.6161-9.216-4.2666-3.925-6.4-8.704-6.4-14.336 0-3.413.8534-6.144 2.56-8.192 1.8774-2.048 4.6081-3.072 8.1921-3.072 2.9013 0 5.2906.597 7.168 1.792 1.8773 1.024 3.4986 2.219 4.864 3.584 5.12 4.437 10.9226 7.424 17.408 8.96 6.4853 1.536 13.1413 2.304 19.968 2.304 3.9253 0 8.0209-.256 12.2879-.768 4.437-.683 8.448-1.963 12.032-3.84s6.571-4.523 8.96-7.936c2.389-3.584 3.584-8.363 3.584-14.336 0-5.461-1.109-9.899-3.328-13.312-2.048-3.584-4.864-6.571-8.448-8.96s-7.851-4.352-12.8-5.888c-4.779-1.536-9.9839-3.072-15.6159-4.608-6.3147-1.707-12.544-3.584-18.688-5.632s-11.6054-4.779-16.384-8.192c-4.7787-3.584-8.704-8.021-11.7761-13.312-2.9013-5.461-4.352-12.373-4.352-20.736 0-8.3626 1.5361-15.7013 4.608-22.0159 3.072-6.3147 7.2534-11.6054 12.5441-15.872 5.2906-4.2667 11.5199-7.5093 18.688-9.728 7.3386-2.2187 15.1893-3.328 23.5519-3.328z"/><path d="m251.824 141.232c1.024-2.219 2.475-3.84 4.352-4.864 2.048-1.195 4.267-1.792 6.656-1.792 2.048 0 4.011.512 5.888 1.536 2.048 1.024 3.669 2.645 4.864 4.864 4.949 9.216 9.387 18.603 13.312 28.16 4.096 9.387 8.448 18.944 13.056 28.672 4.267-13.824 8.021-27.136 11.264-39.936 3.243-12.971 6.571-25.685 9.984-38.144 1.195-4.437 2.816-7.339 4.864-8.704 2.048-1.536 4.693-2.304 7.936-2.304 2.901 0 5.291.853 7.168 2.56 1.877 1.536 2.816 3.669 2.816 6.4 0 2.219-.597 6.144-1.792 11.776-1.024 5.461-2.475 11.861-4.352 19.2-1.707 7.168-3.669 14.848-5.888 23.04-2.048 8.192-4.181 16.043-6.4 23.552-2.048 7.509-4.011 14.336-5.888 20.48s-3.328 10.752-4.352 13.824c-1.365 3.925-2.987 6.827-4.864 8.704-1.877 2.048-4.779 3.072-8.704 3.072-3.584 0-6.571-1.365-8.96-4.096-2.389-2.901-4.608-6.315-6.656-10.24-.683-1.365-1.792-3.669-3.328-6.912s-3.413-7.083-5.632-11.52c-2.048-4.437-4.352-9.301-6.912-14.592-2.389-5.291-4.864-10.667-7.424-16.128-2.56 5.461-5.205 10.837-7.936 16.128-2.56 5.291-4.949 10.24-7.168 14.848-2.219 4.437-4.181 8.277-5.888 11.52-1.536 3.243-2.645 5.547-3.328 6.912-2.048 3.925-4.267 7.339-6.656 10.24-2.219 2.731-5.205 4.096-8.96 4.096-5.973 0-10.496-3.925-13.568-11.776-1.195-3.072-2.731-7.595-4.608-13.568-1.877-6.144-3.84-12.971-5.888-20.48s-4.096-15.275-6.144-23.296c-2.048-8.192-3.925-15.872-5.632-23.04-1.536-7.168-2.816-13.483-3.84-18.944s-1.536-9.387-1.536-11.776c0-2.901.768-5.291 2.304-7.168 1.707-1.877 4.096-2.816 7.168-2.816 3.413 0 6.144.768 8.192 2.304 2.219 1.365 3.925 4.267 5.12 8.704 3.413 12.459 6.741 25.173 9.984 38.144 3.243 12.8 6.997 26.112 11.264 39.936 3.755-8.192 7.509-16.725 11.264-25.6s8.704-19.2 14.848-30.976z"/><path d="m371.408 222.128c-.341-6.315-.683-13.483-1.024-21.504-.171-8.192-.256-17.152-.256-26.88 0-12.117.085-22.443.256-30.976.171-8.704.597-15.787 1.28-21.248.853-5.632 2.133-9.728 3.84-12.288 1.707-2.731 4.096-4.096 7.168-4.096 2.901 0 5.461 1.024 7.68 3.072s3.499 6.485 3.84 13.312c1.024 17.92 1.536 35.243 1.536 51.968 0 8.533-.171 16.555-.512 24.064-.341 7.339-.683 15.445-1.024 24.32-.171 4.096-.597 7.253-1.28 9.472-.512 2.219-1.28 3.925-2.304 5.12s-2.219 1.877-3.584 2.048c-1.195.341-2.645.512-4.352.512-3.072 0-5.632-1.024-7.68-3.072-2.048-2.219-3.243-6.827-3.584-13.824zm11.52-163.3279c3.925 0 7.509 1.536 10.752 4.608 3.413 3.072 5.12 6.7413 5.12 11.008 0 4.096-1.707 7.68-5.12 10.752-3.413 2.9013-7.253 4.352-11.52 4.352-3.584 0-6.997-1.4507-10.24-4.352-3.072-3.072-4.608-6.8267-4.608-11.264 0-4.096 1.536-7.5947 4.608-10.496 3.243-3.072 6.912-4.608 11.008-4.608z"/><path d="m428.646 222.384c-.683-5.973-1.109-13.227-1.28-21.76s-.256-18.859-.256-30.976c0-11.947 0-21.589 0-28.928.171-7.339.683-13.824 1.536-19.456.853-6.997 2.133-11.52 3.84-13.568 1.877-2.048 4.267-3.072 7.168-3.072 2.048 0 3.84.171 5.376.512 1.707.341 3.157 1.109 4.352 2.304 1.365 1.024 2.389 2.56 3.072 4.608s1.024 4.864 1.024 8.448c0 .683.085 1.365.256 2.048v2.304c.171.683.256 1.536.256 2.56 4.608-5.803 9.813-10.752 15.616-14.848 5.973-4.096 12.715-6.144 20.224-6.144 10.069 0 15.104 4.181 15.104 12.544 0 3.072-.683 5.632-2.048 7.68-1.195 2.048-2.987 3.755-5.376 5.12-2.219 1.195-4.864 2.133-7.936 2.816-2.901.683-6.144 1.365-9.728 2.048-5.461 1.024-10.581 2.987-15.36 5.888-4.779 2.731-8.021 6.229-9.728 10.496v7.168c.171 1.536.256 2.816.256 3.84.171 1.024.256 2.133.256 3.328v5.632c0 8.704-.171 16.896-.512 24.576-.341 7.509-.683 15.701-1.024 24.576-.171 4.096-.683 7.253-1.536 9.472-.683 2.219-1.621 3.925-2.816 5.12-1.024 1.195-2.219 1.877-3.584 2.048-1.365.341-2.731.512-4.096.512-4.779 0-8.021-1.024-9.728-3.072-1.536-2.219-2.645-6.827-3.328-13.824z"/><path d="m525.402 223.152c-.171-6.144-.341-13.312-.512-21.504s-.341-17.067-.512-26.624c0-9.557-.085-19.627-.256-30.208 0-10.581 0-21.419 0-32.512 0-12.117.085-22.5279.256-31.2319s.597-15.872 1.28-21.504c.853-5.632 2.133-9.728 3.84-12.288 1.707-2.7307 4.096-4.096 7.168-4.096 2.901 0 5.461.9386 7.68 2.816 2.219 1.8773 3.499 6.2293 3.84 13.056.683 12.288 1.109 25.088 1.28 38.4.171 13.1409.256 26.1119.256 38.9119v22.272c0 6.997-.085 13.995-.256 20.992-.171 6.827-.341 13.824-.512 20.992s-.427 14.592-.768 22.272c-.171 4.096-.597 7.253-1.28 9.472-.512 2.219-1.28 3.925-2.304 5.12s-2.219 1.877-3.584 2.048c-1.195.341-2.645.512-4.352.512-3.072 0-5.632-1.024-7.68-3.072-2.048-2.219-3.243-6.827-3.584-13.824z"/><path clip-rule="evenodd" d="m75.592 169.333c1.749 6.678-2.2469 13.51-8.9252 15.259l-2.3259.609c-8.2364 2.158-12.3544 13.279-6.334 19.299 4.8815 4.882 6.2133 11.957 1.3317 16.839-4.8815 4.882-13.457 6.543-18.3386 1.661-19.6731-19.673-9.9073-54.934 17.0069-61.983l2.3259-.609c6.6783-1.749 13.5101 2.247 15.2592 8.925z" fill-rule="evenodd"/></g><path d="m145.07 118c11.877-10.894 9.797-30.1784-4.131-38.2884l-2.939-1.7116" stroke="#e0c3ff" stroke-linecap="round" stroke-width="25"/><g mask="url(#b)"><path d="m144.724 78.611-14.028-19.8041c-11.68-16.4892-31.2864-25.4723-51.4015-23.5505-26.7435 2.5551-47.9753 23.6145-50.7483 50.3363l-.2303 2.2193c-.3341 3.2195-.4033 6.4611-.207 9.6919l4.4538 73.2841c.4981 8.196 2.2034 16.274 5.0609 23.971l5.7631 15.525c8.6725 23.363 30.9631 38.865 55.8838 38.865h.9245c17.749 0 34.51-8.166 45.449-22.143 6.332-8.091 10.389-17.725 11.753-27.908l5.417-40.449v-23.203c0-20.361-6.321-40.22-18.09-56.835z" fill="#d8b4ff"/><path d="m164.91 89.4616-14.028-19.8042c-11.679-16.4891-31.286-25.4723-51.4014-23.5505-26.7435 2.5552-47.9753 23.6145-50.7483 50.3363l-.2303 2.2193c-.3341 3.2195-.4033 6.4615-.207 9.6915l4.4538 73.285c.4981 8.196 2.2034 16.273 5.0609 23.971l5.7631 15.525c8.6726 23.363 30.9632 38.865 55.8842 38.865h.924c17.749 0 34.51-8.167 45.449-22.144 6.332-8.09 10.389-17.725 11.753-27.907l5.417-40.449v-23.204c0-20.361-6.321-40.219-18.09-56.8344z" fill="#d0a4ff"/><path d="m217.91 97.4616-14.028-19.8042c-11.679-16.4891-31.286-25.4723-51.401-23.5505-26.744 2.5552-47.976 23.6145-50.749 50.3361l-.23 2.22c-.334 3.219-.403 6.461-.207 9.691l4.454 73.285c.498 8.196 2.203 16.273 5.061 23.971l5.763 15.525c8.672 23.363 30.963 38.865 55.884 38.865h.924c17.749 0 34.51-8.167 45.449-22.144 6.332-8.09 10.389-17.725 11.753-27.907l5.417-40.449v-23.204c0-20.361-6.321-40.219-18.09-56.8344z" fill="#c289ff"/><path d="m314.91 97.4616-14.028-19.8042c-11.679-16.4891-31.286-25.4723-51.401-23.5505-26.744 2.5552-47.976 23.6145-50.749 50.3361l-.23 2.22c-.334 3.219-.403 6.461-.207 9.691l4.454 73.285c.498 8.196 2.203 16.273 5.061 23.971l5.763 15.525c8.672 23.363 30.963 38.865 55.884 38.865h.924c17.749 0 34.51-8.167 45.449-22.144 6.332-8.09 10.389-17.725 11.753-27.907l5.417-40.449v-23.204c0-20.361-6.321-40.219-18.09-56.8344z" fill="#b875ff"/><path d="m435.91 89.4616-14.028-19.8042c-11.679-16.4891-31.286-25.4723-51.401-23.5505-26.744 2.5552-47.976 23.6145-50.749 50.3363l-.23 2.2193c-.334 3.2195-.403 6.4615-.207 9.6915l4.454 73.285c.498 8.196 2.203 16.273 5.061 23.971l5.763 15.525c8.672 23.363 30.963 38.865 55.884 38.865h.924c17.749 0 34.51-8.167 45.449-22.144 6.332-8.09 10.389-17.725 11.753-27.907l5.417-40.449v-23.204c0-20.361-6.321-40.219-18.09-56.8344z" fill="#ae63ff"/><path d="m518.91 85.4616-14.028-19.8042c-11.679-16.4891-31.286-25.4723-51.401-23.5505-26.744 2.5552-47.976 23.6145-50.749 50.3363l-.23 2.2193c-.334 3.2196-.403 6.4615-.207 9.6915l4.454 73.285c.498 8.196 2.203 16.273 5.061 23.971l5.763 15.525c8.672 23.363 30.963 38.865 55.884 38.865h.924c17.749 0 34.51-8.167 45.449-22.144 6.332-8.09 10.389-17.725 11.753-27.907l5.417-40.449v-23.204c0-20.361-6.321-40.219-18.09-56.8344z" fill="#a047ff"/><path d="m604.91 79.4616-14.028-19.8042c-11.679-16.4891-31.286-25.4723-51.401-23.5505-26.744 2.5552-47.976 23.6145-50.749 50.3363l-.23 2.2193c-.334 3.2196-.403 6.4611-.207 9.692l4.454 73.2845c.498 8.196 2.203 16.273 5.061 23.971l5.763 15.525c8.672 23.363 30.963 38.865 55.884 38.865h.924c17.749 0 34.51-8.167 45.449-22.144 6.332-8.09 10.389-17.725 11.753-27.907l5.417-40.449v-23.204c0-20.361-6.321-40.2195-18.09-56.8344z" fill="#922bff"/><path d="m604.91 79.4616-14.028-19.8042c-11.679-16.4891-31.286-25.4723-51.401-23.5505-26.744 2.5552-47.976 23.6145-50.749 50.3363l-.23 2.2193c-.334 3.2196-.403 6.4611-.207 9.692l4.454 73.2845c.498 8.196 2.203 16.273 5.061 23.971l5.763 15.525c8.672 23.363 30.963 38.865 55.884 38.865h.924c17.749 0 34.51-8.167 45.449-22.144 6.332-8.09 10.389-17.725 11.753-27.907l5.417-40.449v-23.204c0-20.361-6.321-40.2195-18.09-56.8344z" fill="#922cff"/></g><path d="m380.065 49.1069.793-3.2851c.3-1.2419.822-2.4194 1.54-3.4759 1.261-1.8544 3.077-3.2614 5.188-4.0191l3.696-1.3268" stroke="#00c434" stroke-linecap="round" stroke-width="10"/><path d="m399.728 75.6967c1.108-2.1404 1.539-4.5869 1.539-7.2089 0-11.7468-8.332-22.6006-20.133-22.6006-11.802 0-20.134 10.8538-20.134 22.6006 0 1.7291.157 3.356.538 4.8588 1.085 4.2803 4.023 7.2735 7.347 9.1317 3.285 1.8363 7.165 2.7144 10.913 2.8401 3.763.1261 7.703-.4941 11.188-1.9648 3.471-1.4648 6.81-3.922 8.742-7.6569z" fill="#ff5353"/><path d="m399.728 75.6967c1.108-2.1404 1.539-4.5869 1.539-7.2089 0-11.7468-8.332-22.6006-20.133-22.6006-11.802 0-20.134 10.8538-20.134 22.6006 0 1.7291.157 3.356.538 4.8588 1.085 4.2803 4.023 7.2735 7.347 9.1317 3.285 1.8363 7.165 2.7144 10.913 2.8401 3.763.1261 7.703-.4941 11.188-1.9648 3.471-1.4648 6.81-3.922 8.742-7.6569z" stroke="#f66" stroke-width="10"/><path d="m399.728 75.6967c1.108-2.1404 1.539-4.5869 1.539-7.2089 0-11.7468-8.332-22.6006-20.133-22.6006-11.802 0-20.134 10.8538-20.134 22.6006 0 1.7291.157 3.356.538 4.8588 1.085 4.2803 4.023 7.2735 7.347 9.1317 3.285 1.8363 7.165 2.7144 10.913 2.8401 3.763.1261 7.703-.4941 11.188-1.9648 3.471-1.4648 6.81-3.922 8.742-7.6569z" stroke="#000" stroke-opacity=".2" stroke-width="10"/><path d="m370.986 62.9942.86-2.3835c.915-2.5339 2.972-4.4879 5.549-5.2723" stroke="#fffef2" stroke-linecap="round" stroke-width="10"/></svg>